PathFileType	4	(X/Y/Z)	C:\Users\°ÂÌØÂü\Desktop\20210112\bx_n_10_1801-Unnamed.trc
DataRate	CameraRate	NumFrames	NumMarkers	Units	OrigDataRate	OrigDataStartFrame	OrigNumFrames
50.00	50.00	       4	0	mm	50.00	282	       563
Frame#	Time	
		

282	5.620	-747.83746	259.05530	744.82092	-778.37885	268.86420	874.64868	-646.94806	-34.48091	821.98975	-663.45282	201.17712	839.51483	-707.98956	153.63329	215.20845	-653.80371	-99.59282	1514.36218				-667.88983	202.20486	538.48706				-667.38037	52.39561	161.87808	-765.08801	247.87262	503.52426	-728.39429	237.87007	577.65912				-652.12708	-71.38481	158.72330	-697.92615	-49.49952	612.30646	-766.62292	224.58524	206.05084	-609.67847	-80.15185	155.51477	-882.37628	296.02225	144.68523	-618.98010	73.58202	1309.55994	-594.49231	20.64640	170.47635	-551.70819	-35.29504	165.33301	-672.15015	174.72655	157.99155	-590.71399	223.08040	174.80942	-660.45605	299.56198	157.59711	-624.43164	308.45425	157.54543	-555.92731	259.46066	165.58809	-528.20642	304.10770	146.82446	-593.20209	78.88834	1816.55164	-659.71625	250.40665	1522.88538	-517.26984	-72.88901	143.41129	-792.37451	174.88074	184.74048	-743.45068	239.16669	639.03735	-787.24011	46.08466	175.83253	-708.11591	68.72475	218.86899	-744.49823	-52.23500	486.86395	-756.74152	-16.81086	206.05360	-875.99792	-78.69180	141.55168	-743.51752	-95.21806	865.55457	-640.46100	-3.87360	517.81976	-662.65533	57.40755	578.35046				-679.56708	139.46355	585.59741	-728.27087	-79.30981	749.91071	-696.48706	-47.26595	565.56476	
283	5.640	-748.76508	259.68344	743.69501	-781.24133	268.63568	873.66742	-648.95575	-35.47665	822.49213	-665.96857	201.47581	839.99890	-707.77344	153.53558	215.33928	-649.57178	-100.02984	1510.02612	-719.59125	216.21339	1062.48694	-666.02063	203.04449	538.06720				-667.06250	52.55078	161.76378	-763.67694	248.28224	503.13544	-726.36829	239.13333	577.85291				-652.26337	-71.24428	158.69301	-695.70715	-50.18674	611.55267	-766.51782	224.74197	206.22517	-609.58734	-80.40733	155.71518	-882.43616	296.14734	144.72641	-618.41925	72.99993	1304.85938	-594.49762	20.82675	170.26869	-551.69971	-35.23878	165.14240	-672.00403	174.70822	157.96399	-590.97394	223.29555	174.50070	-660.54236	299.59329	157.48045	-624.47015	308.42661	157.66148	-555.94263	259.47861	165.44334	-528.24780	304.11163	146.62102	-585.90765	77.98120	1811.73950	-656.46863	249.83914	1518.72485	-517.32111	-73.08137	143.61086	-792.26904	174.78857	184.88033	-742.65424	239.63814	638.31024	-787.08612	46.35394	176.16078	-707.58221	67.84518	218.04962	-742.74310	-52.61549	487.03561	-756.34619	-16.95223	206.09915	-875.95648	-78.79716	141.44162	-746.42725	-96.51565	864.10400	-638.45099	-3.60263	517.09131	-660.67072	56.20855	577.48291				-677.91492	140.34406	585.42914	-728.14990	-81.46211	749.40552	-693.80719	-47.68062	564.37476	
284	5.660	-749.34991	260.61508	743.22412	-784.83521	269.17297	872.57275	-650.95105	-35.86234	822.37628	-668.81775	201.04462	840.16235	-707.70984	153.50514	215.40984	-645.54962	-100.99892	1504.95752	-724.84363	215.92429	1060.81140	-664.31592	204.21469	537.89954				-667.23456	52.43304	161.77802	-761.97797	249.23933	502.84314	-724.47931	240.12245	577.00330				-652.29150	-71.21114	158.69633	-694.48737	-50.79793	611.43701	-766.34802	224.85214	206.24310	-609.71997	-80.30582	155.65927	-882.45599	296.12973	144.75371	-617.43579	72.54909	1299.68140	-594.45093	20.84837	170.27600	-551.69073	-35.35464	165.31853	-671.83130	174.69022	157.93214	-590.93970	223.11801	174.55418	-660.48224	299.51239	157.43689	-624.50250	308.30035	157.55597	-555.81989	259.47913	165.31308	-528.05219	303.87854	146.61902	-578.24396	77.86613	1806.16040	-653.08234	249.19910	1513.98669	-517.51196	-72.88486	143.49783	-792.34314	174.71321	184.83424	-740.99225	240.91493	637.73480	-787.16028	46.38037	176.09280	-707.23822	67.89086	217.23900	-741.61896	-52.98398	486.34671	-755.96924	-16.65631	205.65051	-876.02106	-78.78465	141.43279	-749.12720	-97.15707	862.41565	-636.58972	-4.22749	516.44501	-658.92322	55.41043	577.95605				-675.98541	141.59268	585.66650	-729.03583	-81.63141	747.68231	-691.82983	-48.03609	563.82300	
285	5.680	-750.24768	261.86362	742.68439	-788.69598	269.23492	871.50488	-653.29572	-36.12706	822.17316	-672.40656	200.93672	840.60455	-707.44556	153.48161	215.29489	-641.32477	-101.58852	1499.73865	-729.45001	215.46584	1058.43530	-662.38556	205.39484	537.48895				-667.06250	52.55078	161.76378	-760.09729	250.63513	502.79468	-722.61890	241.58171	577.33569				-652.12708	-71.38481	158.72330	-692.35394	-52.10425	611.28503	-766.26172	225.07040	206.22664	-609.69989	-80.36824	155.65771	-882.36230	296.08911	144.76138	-616.97980	72.05505	1293.87659	-594.75800	20.66382	170.53317	-551.82214	-35.55257	165.36458	-671.94257	174.53020	157.94922	-590.60846	223.32458	174.87764	-660.39423	299.53595	157.35880	-624.50250	308.30035	157.55597	-555.85022	259.60461	165.41035	-528.14728	304.18329	146.80435	-570.58057	77.36574	1800.02979	-649.72485	248.19392	1508.33508	-517.35419	-72.90907	143.63869	-792.09601	174.86685	184.88063	-739.50006	242.29492	637.22479	-787.20508	46.37816	176.02203	-707.06262	67.85847	217.17680	-739.10449	-53.93369	486.37314	-755.79572	-17.15516	206.03046	-875.86865	-78.72662	141.20197	-752.24957	-97.00853	860.29022	-634.58057	-4.68421	516.30048	-656.94952	54.51265	577.46179				-674.49982	142.83319	585.45721	-730.22980	-82.64310	746.41583	-690.31555	-48.85561	563.42664	
